<svg xmlns="http://www.w3.org/2000/svg" xmlns:xlink="http://www.w3.org/1999/xlink" version="1.1" class="marks" width="399" height="371" viewBox="0 0 399 371"><g fill="none" stroke-miterlimit="10" transform="translate(94,29)"><g class="mark-group role-frame root" role="graphics-object" aria-roledescription="group mark container"><g transform="translate(0,0)"><path class="background" aria-hidden="true" d="M0.5,0.5h300v300h-300Z" stroke="#ddd"/><g><g class="mark-group role-axis" role="graphics-symbol" aria-roledescription="axis" aria-label="X-axis titled 'Frame' for a discrete scale with 4 values: compliance, ethical, opportunity, risk"><g transform="translate(0.5,300.5)"><path class="background" aria-hidden="true" d="M0,0h0v0h0Z" pointer-events="none"/><g><g class="mark-rule role-axis-tick" pointer-events="none"><line transform="translate(38,0)" x2="0" y2="5" stroke="#888" stroke-width="1" opacity="1"/><line transform="translate(113,0)" x2="0" y2="5" stroke="#888" stroke-width="1" opacity="1"/><line transform="translate(188,0)" x2="0" y2="5" stroke="#888" stroke-width="1" opacity="1"/><line transform="translate(263,0)" x2="0" y2="5" stroke="#888" stroke-width="1" opacity="1"/></g><g class="mark-text role-axis-label" pointer-events="none"><text text-anchor="middle" transform="translate(37.5,16)" font-family="Times New Roman" font-size="12px" fill="#000" opacity="1">compliance</text><text text-anchor="middle" transform="translate(112.5,16)" font-family="Times New Roman" font-size="12px" fill="#000" opacity="1">ethical</text><text text-anchor="middle" transform="translate(187.5,16)" font-family="Times New Roman" font-size="12px" fill="#000" opacity="1">opportunity</text><text text-anchor="middle" transform="translate(262.5,16)" font-family="Times New Roman" font-size="12px" fill="#000" opacity="1">risk</text></g><g class="mark-rule role-axis-domain" pointer-events="none"><line transform="translate(0,0)" x2="300" y2="0" stroke="#888" stroke-width="1" opacity="1"/></g><g class="mark-text role-axis-title" pointer-events="none"><text text-anchor="middle" transform="translate(150,34)" font-family="Times New Roman" font-size="15px" font-weight="bold" fill="#000" opacity="1">Frame</text></g></g><path class="foreground" aria-hidden="true" d="" pointer-events="none" display="none"/></g></g><g class="mark-group role-axis" role="graphics-symbol" aria-roledescription="axis" aria-label="Y-axis titled 'Theme' for a discrete scale with 3 values: Culture, Employment, Environment"><g transform="translate(0.5,0.5)"><path class="background" aria-hidden="true" d="M0,0h0v0h0Z" pointer-events="none"/><g><g class="mark-rule role-axis-tick" pointer-events="none"><line transform="translate(0,50)" x2="-5" y2="0" stroke="#888" stroke-width="1" opacity="1"/><line transform="translate(0,150)" x2="-5" y2="0" stroke="#888" stroke-width="1" opacity="1"/><line transform="translate(0,250)" x2="-5" y2="0" stroke="#888" stroke-width="1" opacity="1"/></g><g class="mark-text role-axis-label" pointer-events="none"><text text-anchor="end" transform="translate(-7,54)" font-family="Times New Roman" font-size="12px" fill="#000" opacity="1">Culture</text><text text-anchor="end" transform="translate(-7,154)" font-family="Times New Roman" font-size="12px" fill="#000" opacity="1">Employment</text><text text-anchor="end" transform="translate(-7,254)" font-family="Times New Roman" font-size="12px" fill="#000" opacity="1">Environment</text></g><g class="mark-rule role-axis-domain" pointer-events="none"><line transform="translate(0,0)" x2="0" y2="300" stroke="#888" stroke-width="1" opacity="1"/></g><g class="mark-text role-axis-title" pointer-events="none"><text text-anchor="middle" transform="translate(-73.654296875,150) rotate(-90) translate(0,-3)" font-family="Times New Roman" font-size="15px" font-weight="bold" fill="#000" opacity="1">Theme</text></g></g><path class="foreground" aria-hidden="true" d="" pointer-events="none" display="none"/></g></g><g class="mark-symbol role-mark marks" role="graphics-object" aria-roledescription="symbol mark container"><path aria-label="Frame: opportunity; Theme: Culture; Count: 22.1058657067" role="graphics-symbol" aria-roledescription="circle" transform="translate(187.5,50)" d="M13.297,0A13.297,13.297,0,1,1,-13.297,0A13.297,13.297,0,1,1,13.297,0" fill="#71BDFF" stroke-width="2" opacity="1"/><path aria-label="Frame: risk; Theme: Culture; Count: 7.75501262975" role="graphics-symbol" aria-roledescription="circle" transform="translate(262.5,50)" d="M7.876,0A7.876,7.876,0,1,1,-7.876,0A7.876,7.876,0,1,1,7.876,0" fill="#71BDFF" stroke-width="2" opacity="1"/><path aria-label="Frame: compliance; Theme: Culture; Count: 34.2497660038" role="graphics-symbol" aria-roledescription="circle" transform="translate(37.5,50)" d="M16.552,0A16.552,16.552,0,1,1,-16.552,0A16.552,16.552,0,1,1,16.552,0" fill="#71BDFF" stroke-width="2" opacity="1"/><path aria-label="Frame: ethical; Theme: Culture; Count: 45.1222826263" role="graphics-symbol" aria-roledescription="circle" transform="translate(112.5,50)" d="M18.998,0A18.998,18.998,0,1,1,-18.998,0A18.998,18.998,0,1,1,18.998,0" fill="#71BDFF" stroke-width="2" opacity="1"/><path aria-label="Frame: opportunity; Theme: Employment; Count: 41.4569675299" role="graphics-symbol" aria-roledescription="circle" transform="translate(187.5,150)" d="M18.21,0A18.21,18.21,0,1,1,-18.21,0A18.21,18.21,0,1,1,18.21,0" fill="#71BDFF" stroke-width="2" opacity="1"/><path aria-label="Frame: risk; Theme: Employment; Count: 22.1058657067" role="graphics-symbol" aria-roledescription="circle" transform="translate(262.5,150)" d="M13.297,0A13.297,13.297,0,1,1,-13.297,0A13.297,13.297,0,1,1,13.297,0" fill="#71BDFF" stroke-width="2" opacity="1"/><path aria-label="Frame: compliance; Theme: Employment; Count: 43.2847641211" role="graphics-symbol" aria-roledescription="circle" transform="translate(37.5,150)" d="M18.607,0A18.607,18.607,0,1,1,-18.607,0A18.607,18.607,0,1,1,18.607,0" fill="#71BDFF" stroke-width="2" opacity="1"/><path aria-label="Frame: ethical; Theme: Employment; Count: 45.1222826263" role="graphics-symbol" aria-roledescription="circle" transform="translate(112.5,150)" d="M18.998,0A18.998,18.998,0,1,1,-18.998,0A18.998,18.998,0,1,1,18.998,0" fill="#71BDFF" stroke-width="2" opacity="1"/><path aria-label="Frame: opportunity; Theme: Environment; Count: 156.275204254" role="graphics-symbol" aria-roledescription="circle" transform="translate(187.5,250)" d="M35.355,0A35.355,35.355,0,1,1,-35.355,0A35.355,35.355,0,1,1,35.355,0" fill="#71BDFF" stroke-width="2" opacity="1"/><path aria-label="Frame: risk; Theme: Environment; Count: 58.2342636429" role="graphics-symbol" aria-roledescription="circle" transform="translate(262.5,250)" d="M21.582,0A21.582,21.582,0,1,1,-21.582,0A21.582,21.582,0,1,1,21.582,0" fill="#71BDFF" stroke-width="2" opacity="1"/><path aria-label="Frame: compliance; Theme: Environment; Count: 69.780568772" role="graphics-symbol" aria-roledescription="circle" transform="translate(37.5,250)" d="M23.625,0A23.625,23.625,0,1,1,-23.625,0A23.625,23.625,0,1,1,23.625,0" fill="#71BDFF" stroke-width="2" opacity="1"/><path aria-label="Frame: ethical; Theme: Environment; Count: 63.9747515058" role="graphics-symbol" aria-roledescription="circle" transform="translate(112.5,250)" d="M22.621,0A22.621,22.621,0,1,1,-22.621,0A22.621,22.621,0,1,1,22.621,0" fill="#71BDFF" stroke-width="2" opacity="1"/></g><g class="mark-group role-title"><g transform="translate(150,-24)"><path class="background" aria-hidden="true" d="M0,0h0v0h0Z" pointer-events="none"/><g><g class="mark-text role-title-text" role="graphics-symbol" aria-roledescription="title" aria-label="Title text 'EU State Aid'" pointer-events="none"><text text-anchor="middle" transform="translate(0,16)" font-family="Times New Roman" font-size="20px" font-weight="bold" fill="#000" opacity="1">EU State Aid</text></g></g><path class="foreground" aria-hidden="true" d="" pointer-events="none" display="none"/></g></g></g><path class="foreground" aria-hidden="true" d="" display="none"/></g></g></g></svg>